<svg width="512" height="429.22" xmlns="http://www.w3.org/2000/svg" clip-rule="evenodd" fill-rule="evenodd" image-rendering="optimizeQuality" text-rendering="geometricPrecision" shape-rendering="geometricPrecision">

 <g>
  <title>Layer 1</title>
  <g>
   <path transform="matrix(0.999945 -0.010513 0.010513 0.999945 -2.34362 2.67496)" data-fill-palette-color="primary" text-anchor="none" font-size="none" font-weight="none" font-family="none" stroke-dashoffset="0" stroke-miterlimit="10" fill-rule="nonzero" fill="#343541" d="m116.67822,370.98978c-16.482,0 -31.351,-4.151 -44.584,-12.459c-13.282,-8.302 -23.749,-20.363 -31.406,-36.142c-7.644,-15.743 -11.466,-34.371 -11.466,-55.872c0,-37.15 7.77,-71.558 23.302,-103.236c15.532,-31.621 38.47,-57.043 68.808,-76.241c30.351,-19.162 66.796,-28.751 109.326,-28.751c10.983,0 22.77,0.868 35.34,2.566c12.528,1.713 23.917,4.279 34.194,7.705c6.687,1.947 10.027,6.838 10.027,14.664c0,6.346 -2.313,12.331 -6.945,17.953c-4.689,5.629 -10.131,8.436 -16.343,8.436c-1.922,0 -3.354,-0.121 -4.311,-0.362c-12.415,-2.935 -23.05,-5.082 -31.895,-6.453c-8.833,-1.323 -18.16,-1.977 -27.948,-1.977c-30.352,0 -56.163,7.52 -77.424,22.574c-21.268,15.011 -37.157,34.847 -47.672,59.539c-10.508,24.684 -15.77,51.323 -15.77,79.917c0,20.774 4.017,36.823 12.046,48.174c7.972,11.385 18.424,17.078 31.323,17.078c14.575,0 27.361,-6.104 38.351,-18.329c10.984,-12.226 21.024,-32.02 30.115,-59.384c9.076,-27.37 18.033,-64.521 26.871,-111.444c1.433,-6.852 4.304,-11.486 8.608,-13.939c4.298,-2.437 10.027,-3.659 17.202,-3.659c16.965,0 25.448,5.621 25.448,16.858c0,1.962 -0.365,4.4 -1.077,7.335c-6.211,23.704 -11.877,49.909 -16.992,78.602c-5.157,28.743 -7.742,50.562 -7.742,65.467c0,13.198 1.922,22.779 5.744,28.735c3.814,6.02 9.677,9.027 17.558,9.027c7.651,0 14.931,-2.644 21.862,-7.918c6.931,-5.224 15.651,-14.208 26.167,-26.909c2.864,-3.426 6.086,-5.139 9.676,-5.139c3.102,0 5.569,1.479 7.379,4.399c1.775,2.944 2.655,6.974 2.655,12.105c0,9.53 -2.278,17.1 -6.812,22.729c-11.704,14.421 -23.176,25.424 -34.411,33.001c-11.229,7.562 -24.958,11.35 -41.209,11.35c-16.728,0 -30.227,-4.961 -40.505,-14.876c-10.27,-9.886 -16.726,-23.853 -19.354,-41.941c-17.684,37.89 -43.725,56.817 -78.136,56.817zm292.47,-87.614c-4.785,0 -8.719,-1.094 -11.835,-3.29c-3.102,-2.204 -4.654,-5.629 -4.654,-10.263l0.356,-2.936c4.074,-27.378 9.558,-58.529 16.49,-93.484c6.937,-34.955 13.386,-65.126 19.353,-90.549c3.83,-15.638 14.213,-23.463 31.191,-23.463c15.28,0 22.931,5.004 22.931,15.032c0,2.197 -0.356,4.635 -1.076,7.329c-6.212,25.907 -14.456,57.236 -24.734,93.996c-10.264,36.81 -20.066,68.772 -29.38,95.902c-2.642,7.824 -8.846,11.726 -18.642,11.726zm-13.618,87.614c-10.522,0 -18.452,-2.921 -23.804,-8.799c-5.394,-5.863 -8.098,-13.554 -8.098,-23.092c0,-10.996 3.06,-19.795 9.174,-26.383c6.071,-6.602 14.609,-9.908 25.593,-9.908c10.516,0 18.474,2.622 23.875,7.847c5.345,5.274 8.02,13.049 8.02,23.319c0,11.237 -3.102,20.215 -9.313,26.909c-6.212,6.738 -14.694,10.107 -25.447,10.107z" xmlns="http://www.w3.org/2000/svg"/>
  </g>
 </g>
</svg>